<svg xmlns="http://www.w3.org/2000/svg" width="337" height="326" fill="none" xmlns:v="https://vecta.io/nano"><style><![CDATA[.B{stroke:#04fffe}.C{stroke-width:6}.D{stroke-miterlimit:1.5}.E{stroke-linecap:round}.F{stroke-linejoin:round}]]></style><g filter="url(#A)" class="B C D E F"><path d="M33 202.569c2.212-3.694 4.732-7.297 6.161-11.395 4.13-11.836 4.241-25.422 6.948-37.694 2.981-13.488 3.515-29.257 10.808-41.359 3.967-6.583 11.267-8.187 15.239-3.527 1.349-3.465 2.992-6.608 6.218-8.658 4.888-3.105 8.513.849 8.91 5.687 3.337-5.081 13.343-13.085 16.177-3.08.408 1.446.56 2.983.606 4.479.289 9.128-1.216 18.459-2.38 27.493-.704 5.481-1.152 11.126-2.042 16.624l3.261-3.545c2.558-2.797 13.54-14.502 16.572-5.631 2.423 7.088-6.182 15.191-9.652 20.51-9.924 15.202-11.273 37.267-32.391 41.886a140.65 140.65 0 0 0-4.97 8.61"/><path d="M223.08 198.158c-2.212-3.695-4.732-7.297-6.162-11.396-4.13-11.836-4.24-25.42-6.95-37.694-2.976-13.49-3.516-29.257-10.808-41.359-3.965-6.581-11.267-8.187-15.236-3.524-1.35-3.468-2.99-6.609-6.219-8.66-4.888-3.1-8.513.849-8.91 5.688-3.339-5.083-13.346-13.084-16.177-3.079-.411 1.446-.56 2.984-.608 4.48-.287 9.128 1.218 18.456 2.381 27.49.705 5.482 1.152 11.129 2.043 16.627l-3.263-3.548c-2.557-2.797-13.539-14.502-16.57-5.629-2.421 7.086 6.182 15.191 9.651 20.508 9.922 15.202 11.274 37.269 32.392 41.886a140.67 140.67 0 0 1 4.968 8.612"/><path d="M99.586 151.128c-3.227 3.764-6.356 7.611-9.385 11.536-7.829.679-14.119 7.242-16.696 14.245"/><path d="M156.431 146.716a288.87 288.87 0 0 1 9.383 11.536c7.827.676 14.119 7.241 16.696 14.245"/><path d="M72.16 108.57c1.303 5.51 1.145 11.244.434 16.992-.84 6.763-2.444 13.541-3.329 19.996"/><path d="M183.916 104.225c-1.274 5.378-1.152 10.97-.482 16.581.821 6.898 2.471 13.82 3.375 20.404"/><path d="M87.326 105.543c1.108 12.554-1.98 24.027-3.821 36.297"/><path d="M168.798 101.133c-1.108 12.556 1.981 24.027 3.821 36.294"/><path d="M73.455 72.697c4.337 3.855 8.596 7.701 12.749 11.753"/><path d="M95.182 48.051c2.779 5.443 5.886 10.693 8.839 16.035"/><path d="M126.916 33c1.253 7.322 1.696 14.778 1.868 22.196"/><path d="M148.657 63.49c4.7-6.136 8.821-12.708 13.126-19.124"/><path d="M165.012 82.432l17.317-17.575"/></g><defs><filter id="A" x="0" y="0" width="336.081" height="325.97" filterUnits="userSpaceOnUse" color-interpolation-filters="sRGB"><feFlood flood-opacity="0" result="A"/><feColorMatrix in="SourceAlpha" values="0 0 0 0 0 0 0 0 0 0 0 0 0 0 0 0 0 0 127 0" result="B"/><feOffset dx="40" dy="40"/><feGaussianBlur stdDeviation="35"/><feComposite in2="B" operator="out"/><feColorMatrix values="0 0 0 0 0 0 0 0 0 1 0 0 0 0 0.458824 0 0 0 0.6 0"/><feBlend in2="A"/><feBlend in="SourceGraphic"/></filter></defs></svg>