<svg xmlns="http://www.w3.org/2000/svg" width="313" height="325" fill="none" xmlns:v="https://vecta.io/nano"><style><![CDATA[.B{stroke:#fc63fc}.C{stroke-width:7}.D{stroke-miterlimit:1.5}.E{stroke-linejoin:round}.F{stroke-linecap:round}]]></style><g filter="url(#A)" class="B C D E"><path d="M209 83.045c-97.578 59.152-114.015 66.184-152.422 31.457 9.523 33.187 5.174 57.318-12.578 82.002 43.933-13.39 51.946-1.156 74.249 14.154-13.726-43.336 5.523-57.597 90.751-127.613z"/><path d="M172.374 171.167c1.394 4.554 1.948 9.388 2.842 14.054" class="F"/><path d="M154.016 200.508c3.616-.553 7.268-1.581 10.84-2.416" class="F"/><path d="M179.596 206.637c-.01 4.472.79 10.251 2.197 14.564" class="F"/><path d="M191.129 193.756c4.821.39 9.9-1.555 14.718-2.155" class="F"/><path d="M84.803 44c.523 5.108 1.386 10.148 2.401 15.171" class="F"/><path d="M64.735 72.644a123.15 123.15 0 0 0 11.245-1.504" class="F"/><path d="M91.25 80.354c.079 4.777 1.033 9.854 1.999 14.551" class="F"/><path d="M103.312 67.275c4.352-1.081 8.375-2.547 12.876-3.062" class="F"/></g><defs><filter id="A" x=".5" y=".5" width="312" height="324.202" filterUnits="userSpaceOnUse" color-interpolation-filters="sRGB"><feFlood flood-opacity="0" result="A"/><feColorMatrix in="SourceAlpha" values="0 0 0 0 0 0 0 0 0 0 0 0 0 0 0 0 0 0 127 0" result="B"/><feOffset dx="30" dy="30"/><feGaussianBlur stdDeviation="35"/><feComposite in2="B" operator="out"/><feColorMatrix values="0 0 0 0 0.945833 0 0 0 0 0 0 0 0 0 0.945833 0 0 0 1 0"/><feBlend in2="A"/><feBlend in="SourceGraphic"/></filter></defs></svg>