<svg xmlns="http://www.w3.org/2000/svg" width="313" height="343" fill="none" xmlns:v="https://vecta.io/nano"><style><![CDATA[.B{stroke:#ffcb34}.C{stroke-width:6}.D{stroke-miterlimit:1.5}.E{stroke-linejoin:round}.F{stroke-linecap:round}]]></style><g filter="url(#A)" class="B C D E"><path d="M135.349 211.556c.467 5.833.915 11.432.972 15.17 4.541 1.917 15.303 6.973 21.293 12.673-10.924 1.099-61.655-.153-67.512-1.136 7.504-4.514 16.065-8.629 24.327-11.45-.135-6.738.278-13.088.714-19.824.346-5.324.707-10.888.825-17.076-.826-.156-2.191-.511-3.542-.862l-3.301-.811c-9.81-1.941-16.959-7.379-22.124-14.441-7.026 3.09-15.799-.62-21.571-4.589-12.117-8.33-28.239-25.034-20.33-41.09 4.721-9.582 20.253-12.605 29.777-13.03.529-4.464 1.719-8.807 4.491-11.705 5.022-5.252 13.66-7.454 20.569-8.455 15.358-2.225 31.074-2.429 46.319 1.124l1.17.268c6.856 1.567 19.135 4.374 26.661 10.345 1.712 1.48 3.082 3.178 3.959 5.14.783 1.755 1.237 5.134 1.253 9.538 1.233.336 2.57.669 3.972 1.018 9.169 2.285 21.125 5.264 24.896 14.221 3.581 8.506-.959 16.565-5.935 23.269-9.3 12.533-26.792 28.623-43.898 20.079-3.013 2.838-6.405 5.169-10.212 6.806-3.814 1.638-8.715 2.975-13.833 3.633-.263 4.66.417 13.145 1.06 21.186zM57.97 126.984c-13.327 4.663-4.254 24.156 3.337 30.165 2.307 1.826 4.761 3.48 7.258 5.033 2.922 1.818 9.465 4.257 13.021 2.908-1.708-3.876-3.008-8.169-4.23-12.434-2.532-8.837-3.679-18.638-4.037-27.85-5.175-.228-10.433.456-15.35 2.178zm141.393 19.577c-5.682 14.007-18.977 27.473-35.268 25.87 7.144-12.575 14.253-27.67 15.925-42.136l1.314.266c1.047.206 2.099.412 3.113.72 6.539 1.991 18.736 5.863 14.916 15.28z"/><path d="M147.368 167.502c-15.785-2.967-31.539-3.481-44.255-1.748-5.284.721-10.837 1.131-15.789 3.321" class="F"/><path d="M162.66 157.894c-4.519-1.391-8.972-2.803-13.619-3.716-18.375-3.61-36.543-3.966-54.941-1.066" class="F"/><path d="M70.557 60.889c-.535 4.611-1.184 9.396-1.275 14.029" class="F"/><path d="M57.073 77.957c2.625-.181 5.261-.142 7.89-.054" class="F"/><path d="M73.527 77.72c3.005.51 5.908.372 8.929.421" class="F"/><path d="M68.914 92.565c-.527-2.94-1.059-7.118-.291-10.096" class="F"/><path d="M170.353 194.036c-.459 2.46-.668 4.958-.897 7.449" class="F"/><path d="M161.543 204.67l3.666-.354" class="F"/><path d="M169.004 207.753l-.15 8.026" class="F"/><path d="M172.141 205.358l5.663-.272" class="F"/><path d="M171.002 75.42c-.893-7.359-1.048-12.969-8.147-16.803 6.2-1.678 10.471-9.588 11.48-15.617 1.109 5.754 2.015 12.474 6.597 16.619-5.808 2.368-9.238 9.08-9.929 15.039" class="F"/><path d="M86.364 209.802c-.332-3.034-1.12-6.615-4.366-7.656 2.938-1.193 4.428-4.415 4.797-7.427.084 2.561.703 5.986 3.373 7.017-2.989 1.209-3.114 5.268-3.804 8.066z"/></g><defs><filter id="A" x="-.003" y="0" width="312.458" height="342.827" filterUnits="userSpaceOnUse" color-interpolation-filters="sRGB"><feFlood flood-opacity="0" result="A"/><feColorMatrix in="SourceAlpha" values="0 0 0 0 0 0 0 0 0 0 0 0 0 0 0 0 0 0 127 0" result="B"/><feOffset dx="30" dy="30"/><feGaussianBlur stdDeviation="35"/><feComposite in2="B" operator="out"/><feColorMatrix values="0 0 0 0 1 0 0 0 0 0.810976 0 0 0 0 0 0 0 0 0.6 0"/><feBlend in2="A"/><feBlend in="SourceGraphic"/></filter></defs></svg>